<?xml version="1.0" standalone="no"?>
<!DOCTYPE svg PUBLIC "-//W3C//DTD SVG 20010904//EN"
 "http://www.w3.org/TR/2001/REC-SVG-20010904/DTD/svg10.dtd">
<svg version="1.0" xmlns="http://www.w3.org/2000/svg"
 width="323.000000pt" height="163.000000pt" viewBox="0 0 323.000000 163.000000"
 preserveAspectRatio="xMidYMid meet">

<g transform="translate(0.000000,163.000000) scale(0.100000,-0.100000)"
fill="#000000" stroke="none">
<path d="M1402 1228 c-8 -8 -12 -61 -12 -173 0 -170 4 -185 47 -185 36 0 43
30 43 185 0 82 -5 155 -10 166 -12 21 -50 25 -68 7z"/>
<path d="M1907 1234 c-4 -4 -7 -85 -7 -180 l0 -174 25 -6 c51 -13 56 3 53 190
l-3 171 -30 3 c-17 2 -34 0 -38 -4z"/>
<path d="M1270 1176 c-7 -10 -12 -54 -12 -123 0 -89 3 -109 17 -119 11 -8 25
-10 38 -5 21 8 22 16 25 122 2 98 0 115 -15 126 -22 17 -38 16 -53 -1z"/>
<path d="M2045 1174 c-13 -13 -15 -35 -13 -121 3 -94 5 -107 23 -119 18 -12
24 -11 43 2 20 14 22 23 22 119 0 81 -3 107 -16 119 -20 20 -38 20 -59 0z"/>
<path d="M1510 1055 l0 -45 180 0 180 0 0 45 0 45 -180 0 -180 0 0 -45z"/>
<path d="M1683 639 c-59 -17 -83 -82 -43 -117 11 -9 42 -24 68 -32 28 -9 47
-21 47 -30 0 -21 -49 -25 -87 -6 -38 20 -35 20 -48 -5 -16 -29 1 -45 60 -58
93 -20 154 12 148 77 -3 39 -1 37 -107 86 -54 25 -6 49 51 25 27 -11 32 -10
44 6 19 26 18 34 -10 45 -41 15 -90 19 -123 9z"/>
<path d="M1933 642 c-40 -12 -63 -40 -63 -76 0 -40 9 -49 75 -73 61 -23 74
-53 23 -53 -18 1 -44 7 -58 15 -34 19 -35 19 -48 -11 -11 -23 -10 -26 25 -41
50 -21 124 -21 157 0 61 40 37 108 -50 137 -31 11 -50 23 -53 35 -3 16 2 17
35 12 22 -3 48 -9 60 -12 15 -5 23 0 31 18 11 23 9 26 -15 36 -38 15 -93 21
-119 13z"/>
<path d="M480 515 l0 -125 38 0 c37 0 37 0 37 42 l0 43 58 3 c53 3 57 5 57 27
0 24 -3 25 -61 25 -60 0 -60 0 -57 28 3 26 6 27 66 30 58 3 62 4 62 27 0 25
-1 25 -100 25 l-100 0 0 -125z"/>
<path d="M715 515 l0 -125 38 0 37 0 0 125 0 125 -37 0 -38 0 0 -125z"/>
<path d="M820 615 c0 -22 4 -25 35 -25 l35 0 0 -100 0 -100 38 0 37 0 0 97 0
98 38 3 c32 3 37 7 37 28 0 24 0 24 -110 24 l-110 0 0 -25z"/>
<path d="M1070 515 l0 -125 35 0 34 0 3 70 3 71 53 -71 c47 -63 56 -70 87 -70
l35 0 0 125 0 125 -35 0 -34 0 -3 -72 -3 -72 -53 72 c-49 65 -57 72 -88 72
l-34 0 0 -125z"/>
<path d="M1370 515 l0 -125 105 0 105 0 0 25 c0 24 -2 25 -70 25 -68 0 -70 1
-70 25 0 24 3 25 60 25 57 0 60 1 60 25 0 24 -3 25 -60 25 -57 0 -60 1 -60 25
0 24 2 25 64 25 60 0 64 1 68 25 l5 25 -103 0 -104 0 0 -125z"/>
<path d="M2125 515 c0 -111 2 -125 17 -125 12 0 18 10 20 38 3 36 4 37 48 40
77 4 90 10 106 48 12 28 13 43 4 68 -14 43 -45 56 -128 56 l-67 0 0 -125z
m147 78 c10 -9 18 -26 18 -39 0 -37 -26 -54 -81 -54 l-49 0 0 55 0 55 47 0
c29 0 53 -6 65 -17z"/>
<path d="M2380 516 c0 -103 3 -126 14 -126 10 0 16 13 18 38 3 35 5 37 40 40
34 3 39 0 63 -37 16 -26 33 -41 45 -41 19 0 19 2 -5 39 l-26 39 25 25 c32 32
35 84 7 118 -17 21 -30 24 -100 27 l-81 4 0 -126z m150 74 c24 -24 25 -38 4
-68 -12 -18 -25 -22 -70 -22 l-54 0 0 55 0 55 50 0 c37 0 55 -5 70 -20z"/>
<path d="M2684 620 c-41 -27 -58 -68 -51 -127 15 -136 221 -145 257 -12 14 52
-5 107 -49 136 -44 30 -113 31 -157 3z m139 -34 c33 -31 43 -68 27 -107 -17
-39 -46 -59 -90 -59 -46 0 -76 21 -90 64 -29 90 84 166 153 102z"/>
</g>
</svg>
